#!OML:ASF H:\ManfredETheater\Project 1\Capture day 1\Session 1\subject.ASF
:FULLY-SPECIFIED
:DEGREES
197
root 1.51427 15.8215 25.1315 -149.316 -0.0897489 179.784
lowerback 15.7102 -1.92793 1.50217
upperback 0.73341 -2.27086 3.67848
thorax -7.9417 -1.19851 3.61863
lowerneck -13.833 1.10267 -0.769359
upperneck -2.61515 2.1091 -1.94662
head 1.52865 1.2142 -0.365215
rclavicle 3.65764e-014 -9.14409e-015
rhumerus -47.6064 -3.61766 -84.21
rradius 64.4988
rwrist -10.6512
rhand -26.7574 -2.76329
rfingers 7.12502
rthumb -0.185729 -32.743
lclavicle 3.65764e-014 -9.14409e-015
lhumerus -34.7731 -11.8059 96.6508
lradius 80.2024
lwrist 12.0524
lhand -19.508 8.21454
lfingers 7.12502
lthumb 6.81479 38.0849
rfemur -50.5513 -2.09979 22.567
rtibia 71.7207
rfoot -26.0026 -3.29026
rtoes -20.4175
lfemur -22.6657 -4.92312 -19.9646
ltibia 52.0448
lfoot -18.3056 -0.618414
ltoes -20.4951
198
root 1.54647 15.8045 24.9259 -149.22 -0.394739 179.885
lowerback 15.8962 -1.87802 1.76791
upperback 0.803412 -2.16325 3.73971
thorax -7.98201 -1.16125 3.51796
lowerneck -13.7554 0.943206 -0.887507
upperneck -2.95571 1.93415 -1.9129
head 1.39942 1.14475 -0.345622
rclavicle 4.77083e-015 3.57812e-015
rhumerus -47.9192 -3.7921 -84.2371
rradius 65.0049
rwrist -11.2253
rhand -27.0229 -2.40956
rfingers 7.12502
rthumb -0.442169 -32.3888
lclavicle 4.77083e-015 3.57812e-015
lhumerus -34.5184 -12.0482 96.8019
lradius 82.7676
lwrist 13.211
lhand -20.0379 7.77499
lfingers 7.12502
lthumb 6.30319 37.6612
rfemur -49.6769 -2.02095 22.8369
rtibia 71.5145
rfoot -26.0531 -3.4476
rtoes -20.7985
lfemur -24.4706 -4.49246 -19.4757
ltibia 55.5378
lfoot -15.7177 -1.88883
ltoes -18.6961
199
root 1.57849 15.7891 24.7153 -149.179 -0.734896 180.014
lowerback 16.0988 -1.81188 2.07707
upperback 0.881066 -2.02692 3.80618
thorax -8.02478 -1.11268 3.39211
lowerneck -13.6603 0.757543 -1.02
upperneck -3.28582 1.7252 -1.86049
head 1.27099 1.05875 -0.31927
rclavicle 1.55052e-014 -4.33351e-014
rhumerus -48.1471 -3.87565 -84.3186
rradius 65.539
rwrist -11.6531
rhand -27.2601 -1.98607
rfingers 7.12502
rthumb -0.671345 -31.9648
lclavicle 1.55052e-014 -4.33351e-014
lhumerus -34.2483 -12.3507 96.9872
lradius 85.3113
lwrist 14.2607
lhand -20.5511 7.20392
lfingers 7.12502
lthumb 5.80774 37.1043
rfemur -48.6787 -1.96165 23.1557
rtibia 71.2383
rfoot -26.1131 -3.59287
rtoes -21.1298
lfemur -26.3683 -4.04336 -18.963
ltibia 59.1739
lfoot -13.6634 -2.81406
ltoes -16.9519
200
root 1.60976 15.7651 24.5045 -149.191 -1.0977 180.169
lowerback 16.3094 -1.72744 2.42293
upperback 0.967307 -1.8606 3.87315
thorax -8.06337 -1.05198 3.23865
lowerneck -13.5471 0.547157 -1.16568
upperneck -3.60571 1.48371 -1.78209
head 1.14333 0.956961 -0.28388
rclavicle 3.57812e-014 2.18663e-014
rhumerus -48.271 -3.85834 -84.4663
rradius 66.1116
rwrist -11.9471
rhand -27.4588 -1.47734
rfingers 7.12502
rthumb -0.863222 -31.4553
lclavicle 3.57812e-014 2.18663e-014
lhumerus -33.9703 -12.7021 97.206
lradius 87.8031
lwrist 15.107
lhand -21.0328 6.48453
lfingers 7.12502
lthumb 5.34264 36.3972
rfemur -47.6186 -1.92038 23.5195
rtibia 70.9433
rfoot -26.1803 -3.73431
rtoes -21.4473
lfemur -28.3754 -3.55675 -18.4419
ltibia 62.9389
lfoot -12.3592 -3.33371
ltoes -15.6143
201
root 1.64066 15.738 24.2907 -149.245 -1.47339 180.34
lowerback 16.5218 -1.62296 2.78538
upperback 1.05585 -1.66467 3.94011
thorax -8.09991 -0.97825 3.06823
lowerneck -13.4188 0.316442 -1.32499
upperneck -3.90548 1.21496 -1.67699
head 1.02051 0.84143 -0.238765
rclavicle 0 3.97569e-014
rhumerus -48.2849 -3.72514 -84.6875
rradius 66.7573
rwrist -12.1756
rhand -27.602 -0.922911
rfingers 7.12502
rthumb -1.00154 -30.9003
lclavicle 0 3.97569e-014
lhumerus -33.7054 -13.0834 97.462
lradius 90.2088
lwrist 15.6749
lhand -21.4469 5.611
lfingers 7.12502
lthumb 4.94283 35.5334
rfemur -46.478 -1.89683 23.9177
rtibia 70.6008
rfoot -26.2603 -3.87057
rtoes -21.7282
lfemur -30.4672 -3.01271 -17.9263
ltibia 66.7507
lfoot -11.8577 -3.43728
ltoes -14.8486
202
root 1.67116 15.7084 24.0733 -149.332 -1.84711 180.513
lowerback 16.731 -1.4973 3.14215
upperback 1.1432 -1.44114 4.00304
thorax -8.13419 -0.891309 2.88922
lowerneck -13.2792 0.0668867 -1.49767
upperneck -4.18171 0.920733 -1.54452
head 0.904578 0.712782 -0.183602
rclavicle 1.98785e-015 5.92378e-014
rhumerus -48.1779 -3.47038 -84.9834
rradius 67.505
rwrist -12.4367
rhand -27.6756 -0.36366
rfingers 7.12502
rthumb -1.07262 -30.3407
lclavicle 1.98785e-015 5.92378e-014
lhumerus -33.4812 -13.4732 97.758
lradius 92.4986
lwrist 15.9169
lhand -21.7836 4.60808
lfingers 7.12502
lthumb 4.61777 34.5377
rfemur -45.2612 -1.88413 24.327
rtibia 70.2114
rfoot -26.3583 -4.00709
rtoes -21.9985
lfemur -32.6385 -2.39432 -17.4412
ltibia 70.5582
lfoot -12.0231 -3.15391
ltoes -14.255
203
root 1.70126 15.677 23.8515 -149.437 -2.19981 180.676
lowerback 16.9221 -1.34829 3.46795
upperback 1.22336 -1.19138 4.05813
thorax -8.16372 -0.790354 2.71149
lowerneck -13.1299 -0.197441 -1.68735
upperneck -4.4262 0.606138 -1.38062
head 0.798695 0.573089 -0.116216
rclavicle -1.27222e-014 -1.98785e-014
rhumerus -47.9445 -3.08643 -85.3545
rradius 68.3906
rwrist -12.8268
rhand -27.6773 0.120662
rfingers 7.12502
rthumb -1.07422 -29.8564
lclavicle -1.27222e-014 -1.98785e-014
lhumerus -33.3295 -13.8452 98.0917
lradius 94.6235
lwrist 15.8077
lhand -22.0427 3.40434
lfingers 7.12502
lthumb 4.36754 33.3393
rfemur -43.9768 -1.87077 24.7225
rtibia 69.7498
rfoot -26.4789 -4.13884
rtoes -22.2767
lfemur -34.8952 -1.6891 -17.0138
ltibia 74.2881
lfoot -12.6447 -2.57313
ltoes -13.9011
204
root 1.73127 15.6453 23.6242 -149.541 -2.51183 180.823
lowerback 17.0821 -1.1718 3.74131
upperback 1.293 -0.913957 4.10341
thorax -8.18459 -0.673503 2.54427
lowerneck -12.9711 -0.472623 -1.88974
upperneck -4.64302 0.275884 -1.1913
head 0.701898 0.424584 -0.0390107
rclavicle -2.46493e-014 -7.95139e-016
rhumerus -47.5759 -2.57624 -85.7931
rradius 69.4359
rwrist -13.3931
rhand -27.6088 0.547043
rfingers 7.12502
rthumb -1.00808 -29.4303
lclavicle -2.46493e-014 -7.95139e-016
lhumerus -33.2838 -14.1811 98.4561
lradius 96.5477
lwrist 15.3922
lhand -22.2193 2.08657
lfingers 7.12502
lthumb 4.19704 32.025
rfemur -42.627 -1.83232 25.0863
rtibia 69.1923
rfoot -26.6129 -4.27029
rtoes -22.5841
lfemur -37.2535 -0.884605 -16.6655
ltibia 77.8829
lfoot -13.4645 -1.84064
ltoes -13.5435
